<svg width="3833" height="148" viewBox="0 0 3833 148" fill="none" xmlns="http://www.w3.org/2000/svg">
<path d="M41.4555 45C42.4965 45 43.4252 45.6561 43.7753 46.639L71.5756 124.68C72.1485 126.288 70.9593 127.98 69.2558 127.98H62.9026C61.8602 127.98 60.9306 127.323 60.5815 126.338L54.77 109.945C54.4209 108.96 53.4913 108.302 52.4489 108.302H19.2723C18.2299 108.302 17.3003 108.96 16.9512 109.945L11.1397 126.338C10.7906 127.323 9.86104 127.98 8.81863 127.98H2.4654C0.761936 127.98 -0.427345 126.288 0.145592 124.68L27.9459 46.639C28.296 45.6561 29.2247 45 30.2657 45H41.4555ZM35.8606 56.7358C35.7897 56.7358 35.7266 56.7806 35.7029 56.8476L22.4787 94.3403C21.9118 95.9473 23.1008 97.6333 24.8011 97.6333H46.9201C48.6203 97.6333 49.8094 95.9473 49.2425 94.3403L36.0183 56.8476C35.9946 56.7806 35.9315 56.7358 35.8606 56.7358Z" fill="#FF4C8B"/>
<path d="M80.3457 127.98C78.9852 127.98 77.8823 126.875 77.8823 125.511V47.4697C77.8823 46.1057 78.9852 45 80.3457 45H87.243C88.6034 45 89.7063 46.1057 89.7063 47.4697V114.842C89.7063 116.206 90.8091 117.311 92.1696 117.311H117.867C119.227 117.311 120.33 118.417 120.33 119.781V125.511C120.33 126.875 119.227 127.98 117.867 127.98H80.3457Z" fill="#FF4C8B"/>
<path d="M127.564 127.98C126.204 127.98 125.101 126.875 125.101 125.511V47.4697C125.101 46.1057 126.204 45 127.564 45H177.673C179.043 45 180.15 46.1207 180.136 47.4942L180.082 52.9424V86.7242C180.082 87.6064 179.613 88.4216 178.851 88.8628L166.938 95.7611C166.564 95.978 166.139 96.0922 165.706 96.0922H139.388C138.028 96.0922 136.925 97.1979 136.925 98.5619V125.511C136.925 126.875 135.822 127.98 134.462 127.98H127.564ZM139.388 55.6689C138.028 55.6689 136.925 56.7746 136.925 58.1386V82.9537C136.925 84.3176 138.028 85.4233 139.388 85.4233H165.795C167.156 85.4233 168.258 84.3176 168.258 82.9537V58.1386C168.258 56.7746 167.156 55.6689 165.795 55.6689H139.388Z" fill="#FF4C8B"/>
<path d="M199.247 90.6392C197.887 90.6392 196.784 91.7449 196.784 93.1089V125.511C196.784 126.875 195.681 127.98 194.32 127.98H187.423C186.063 127.98 184.96 126.875 184.96 125.511V47.4697C184.96 46.1057 186.063 45 187.423 45H194.32C195.681 45 196.784 46.1057 196.784 47.4697V77.5006C196.784 78.8646 197.887 79.9703 199.247 79.9703H242.306C243.666 79.9703 244.769 78.8646 244.769 77.5006V47.4697C244.769 46.1057 245.872 45 247.232 45H254.13C255.49 45 256.593 46.1057 256.593 47.4697V125.511C256.593 126.875 255.49 127.98 254.13 127.98H247.232C245.872 127.98 244.769 126.875 244.769 125.511V93.1089C244.769 91.7449 243.666 90.6392 242.306 90.6392H199.247Z" fill="#FF4C8B"/>
<path d="M304.508 45C305.549 45 306.478 45.6561 306.828 46.639L334.628 124.68C335.201 126.288 334.012 127.98 332.309 127.98H325.955C324.913 127.98 323.983 127.323 323.634 126.338L317.823 109.945C317.474 108.96 316.544 108.302 315.502 108.302H282.325C281.283 108.302 280.353 108.96 280.004 109.945L274.193 126.338C273.843 127.323 272.914 127.98 271.871 127.98H265.518C263.815 127.98 262.625 126.288 263.198 124.68L290.999 46.639C291.349 45.6561 292.277 45 293.319 45H304.508ZM298.913 56.7358C298.843 56.7358 298.779 56.7806 298.756 56.8476L285.531 94.3403C284.965 95.9473 286.154 97.6333 287.854 97.6333H309.973C311.673 97.6333 312.862 95.9473 312.295 94.3403L299.071 56.8476C299.047 56.7806 298.984 56.7358 298.913 56.7358Z" fill="#FF4C8B"/>
<path d="M351.283 64.8682C352.324 64.8682 353.253 65.5243 353.603 66.5072L381.403 144.548C381.976 146.157 380.787 147.849 379.083 147.849H372.73C371.688 147.849 370.758 147.191 370.409 146.206L364.597 129.813C364.248 128.828 363.319 128.17 362.276 128.17H329.1C328.057 128.17 327.128 128.828 326.779 129.813L320.967 146.206C320.618 147.191 319.688 147.849 318.646 147.849H312.293C310.589 147.849 309.4 146.157 309.973 144.548L337.773 66.5072C338.123 65.5243 339.052 64.8682 340.093 64.8682H351.283ZM345.688 76.604C345.617 76.604 345.554 76.6487 345.53 76.7157L332.306 114.208C331.739 115.816 332.928 117.501 334.628 117.501H356.748C358.448 117.501 359.637 115.816 359.07 114.208L345.846 76.7157C345.822 76.6487 345.759 76.604 345.688 76.604Z" fill="white"/>
<path d="M389.68 147.849C388.32 147.849 387.217 146.743 387.217 145.379V67.3378C387.217 65.9739 388.32 64.8682 389.68 64.8682H396.578C397.938 64.8682 399.041 65.9739 399.041 67.3378V134.71C399.041 136.074 400.144 137.18 401.504 137.18H432.128C433.489 137.18 434.592 138.285 434.592 139.649V145.379C434.592 146.743 433.489 147.849 432.128 147.849H389.68Z" fill="white"/>
<path d="M467.659 64.8682C468.7 64.8682 469.629 65.5243 469.979 66.5072L497.779 144.548C498.352 146.157 497.163 147.849 495.46 147.849H489.106C488.064 147.849 487.134 147.191 486.785 146.206L480.974 129.813C480.625 128.828 479.695 128.17 478.653 128.17H445.476C444.434 128.17 443.504 128.828 443.155 129.813L437.343 146.206C436.994 147.191 436.065 147.849 435.022 147.849H428.669C426.966 147.849 425.776 146.157 426.349 144.548L454.15 66.5072C454.5 65.5243 455.428 64.8682 456.469 64.8682H467.659ZM462.064 76.604C461.994 76.604 461.93 76.6488 461.907 76.7157L448.682 114.208C448.116 115.816 449.305 117.501 451.005 117.501H473.124C474.824 117.501 476.013 115.816 475.446 114.208L462.222 76.7157C462.198 76.6488 462.135 76.604 462.064 76.604Z" fill="white"/>
<path d="M534.45 116.028C534.013 115.253 533.194 114.775 532.307 114.775H517.326C515.966 114.775 514.863 115.881 514.863 117.245V145.379C514.863 146.743 513.76 147.849 512.399 147.849H505.502C504.142 147.849 503.039 146.743 503.039 145.379V67.3378C503.039 65.9739 504.142 64.8682 505.502 64.8682H557.819C559.189 64.8682 560.296 65.9889 560.282 67.3624L560.228 72.8106V105.407C560.228 106.289 559.759 107.104 558.997 107.546L548.645 113.54C547.467 114.222 547.064 115.732 547.743 116.913L563.417 144.145C564.365 145.791 563.18 147.849 561.284 147.849H553.861C552.973 147.849 552.154 147.37 551.717 146.596L534.45 116.028ZM517.326 75.5371C515.966 75.5371 514.863 76.6428 514.863 78.0067V101.636C514.863 103 515.966 104.106 517.326 104.106H545.941C547.302 104.106 548.404 103 548.404 101.636V78.0067C548.404 76.6428 547.302 75.5371 545.941 75.5371H517.326Z" fill="white"/>
<path d="M643.231 147.849C641.87 147.849 640.767 146.743 640.767 145.379V80.4181C640.767 80.3412 640.705 80.2788 640.628 80.2788C640.57 80.2788 640.518 80.3156 640.498 80.3708L616.761 146.218C616.409 147.197 615.482 147.849 614.445 147.849H606.082C605.043 147.849 604.115 147.195 603.764 146.215L580.144 80.3709C580.124 80.3157 580.072 80.2788 580.013 80.2788C579.936 80.2788 579.874 80.3411 579.874 80.418V145.379C579.874 146.743 578.771 147.849 577.411 147.849H571.105C569.744 147.849 568.641 146.743 568.641 145.379V67.3378C568.641 65.9739 569.744 64.8682 571.105 64.8682H583.581C584.62 64.8682 585.548 65.5219 585.899 66.5022L610.103 133.986C610.127 134.053 610.191 134.098 610.262 134.098C610.333 134.098 610.396 134.053 610.42 133.986L634.741 66.4986C635.093 65.5202 636.02 64.8682 637.058 64.8682H649.537C650.897 64.8682 652 65.9739 652 67.3378V145.379C652 146.743 650.897 147.849 649.537 147.849H643.231Z" fill="white"/>
<path d="M390.619 50.8701H389.237V53.2229H387.534V45.1426H390.619C392.61 45.1426 393.605 46.0774 393.605 47.9469C393.605 48.8896 393.35 49.6145 392.84 50.1215C392.338 50.6206 391.598 50.8701 390.619 50.8701ZM389.237 49.4679H390.607C391.454 49.4679 391.878 48.9609 391.878 47.9469C391.878 47.4479 391.775 47.0914 391.569 46.8775C391.363 46.6557 391.043 46.5448 390.607 46.5448H389.237V49.4679Z" fill="#868E96"/>
<path d="M403.943 51.3216C404.19 51.7336 404.647 51.9395 405.313 51.9395C405.979 51.9395 406.432 51.7336 406.67 51.3216C406.917 50.9018 407.04 50.2047 407.04 49.2303C407.04 48.248 406.917 47.535 406.67 47.0914C406.424 46.6477 405.971 46.4259 405.313 46.4259C404.655 46.4259 404.203 46.6477 403.956 47.0914C403.709 47.535 403.586 48.248 403.586 49.2303C403.586 50.2047 403.705 50.9018 403.943 51.3216ZM408.003 52.3673C407.485 53.0328 406.588 53.3655 405.313 53.3655C404.038 53.3655 403.137 53.0328 402.611 52.3673C402.093 51.694 401.833 50.6443 401.833 49.2184C401.833 47.7925 402.093 46.7349 402.611 46.0457C403.137 45.3486 404.038 45 405.313 45C406.588 45 407.485 45.3486 408.003 46.0457C408.529 46.7349 408.793 47.7925 408.793 49.2184C408.793 50.6443 408.529 51.694 408.003 52.3673Z" fill="#868E96"/>
<path d="M416.978 45.1426H418.767L419.803 51.8207H419.988L421.494 45.1426H423.468L424.973 51.8207H425.158L426.195 45.1426H427.984L426.38 53.2229H423.801L422.481 47.0795L421.161 53.2229H418.582L416.978 45.1426Z" fill="#868E96"/>
<path d="M436.531 53.2229V45.1426H441.96V46.5685H438.234V48.4579H441.22V49.8601H438.234V51.797H441.96V53.2229H436.531Z" fill="#868E96"/>
<path d="M452.469 50.5136V53.2229H450.767V45.1426H454.024C455.998 45.1426 456.986 46.0298 456.986 47.8043C456.986 48.8579 456.574 49.6343 455.752 50.1334L456.949 53.2229H455.085L454.111 50.5136H452.469ZM454.049 49.1114C454.452 49.1114 454.752 48.9926 454.95 48.755C455.147 48.5173 455.246 48.2044 455.246 47.8162C455.246 47.428 455.139 47.1191 454.925 46.8894C454.719 46.6596 454.419 46.5448 454.024 46.5448H452.469V49.1114H454.049Z" fill="#868E96"/>
<path d="M465.822 53.2229V45.1426H471.251V46.5685H467.525V48.4579H470.511V49.8601H467.525V51.797H471.251V53.2229H465.822Z" fill="#868E96"/>
<path d="M482.883 53.2229H480.057V45.1426H482.883C483.607 45.1426 484.203 45.2179 484.672 45.3684C485.141 45.511 485.503 45.7526 485.758 46.0932C486.021 46.4259 486.202 46.822 486.301 47.2815C486.4 47.733 486.449 48.3232 486.449 49.052C486.449 49.7808 486.404 50.3869 486.313 50.8701C486.223 51.3454 486.05 51.7732 485.795 52.1534C485.548 52.5258 485.186 52.7991 484.709 52.9734C484.232 53.1397 483.623 53.2229 482.883 53.2229ZM484.672 50.0145C484.689 49.761 484.697 49.4125 484.697 48.9689C484.697 48.5173 484.68 48.1569 484.647 47.8875C484.615 47.6182 484.536 47.3726 484.413 47.1508C484.29 46.929 484.105 46.7785 483.858 46.6992C483.619 46.6121 483.294 46.5685 482.883 46.5685H481.76V51.797H482.883C483.5 51.797 483.948 51.6464 484.228 51.3454C484.467 51.0998 484.615 50.6562 484.672 50.0145Z" fill="#868E96"/>
<path d="M505.444 45.1426H508.738C509.61 45.1426 510.264 45.3129 510.7 45.6536C511.136 45.9863 511.354 46.5289 511.354 47.2815C511.354 47.733 511.284 48.0935 511.145 48.3628C511.005 48.6243 510.766 48.8579 510.429 49.0639C510.799 49.2144 511.07 49.4323 511.243 49.7175C511.424 50.0027 511.515 50.3987 511.515 50.9057C511.515 51.69 511.276 52.2723 510.799 52.6525C510.322 53.0328 509.651 53.2229 508.788 53.2229H505.444V45.1426ZM508.701 49.8482H507.147V51.8207H508.701C509.072 51.8207 509.343 51.7494 509.516 51.6068C509.697 51.4642 509.787 51.2028 509.787 50.8226C509.787 50.173 509.425 49.8482 508.701 49.8482ZM508.652 46.5448H507.147V48.4698H508.664C509.306 48.4698 509.627 48.1489 509.627 47.5073C509.627 46.8656 509.302 46.5448 508.652 46.5448Z" fill="#868E96"/>
<path d="M523.47 53.2229H521.767V49.9551L519.176 45.1426H521.064L522.606 48.3628L524.149 45.1426H526.037L523.47 49.9551V53.2229Z" fill="#868E96"/>
<path d="M549.794 53.0922C548.922 53.2744 548.136 53.3655 547.437 53.3655C546.738 53.3655 546.178 53.2823 545.759 53.1159C545.339 52.9496 545.01 52.6842 544.772 52.3198C544.533 51.9554 544.369 51.5276 544.278 51.0365C544.188 50.5453 544.142 49.9274 544.142 49.1827C544.142 47.6221 544.369 46.5368 544.821 45.9269C545.282 45.309 546.125 45 547.351 45C548.058 45 548.877 45.1069 549.806 45.3208L549.757 46.6279C548.942 46.5091 548.264 46.4497 547.721 46.4497C547.186 46.4497 546.804 46.521 546.573 46.6636C546.343 46.7983 546.17 47.0597 546.055 47.4479C545.948 47.836 545.895 48.4975 545.895 49.4323C545.895 50.3671 546.006 51.0167 546.228 51.3811C546.458 51.7375 546.911 51.9158 547.585 51.9158C548.268 51.9158 548.992 51.8603 549.757 51.7494L549.794 53.0922Z" fill="#868E96"/>
<path d="M560.246 51.3216C560.493 51.7336 560.95 51.9395 561.616 51.9395C562.282 51.9395 562.735 51.7336 562.973 51.3216C563.22 50.9018 563.343 50.2047 563.343 49.2303C563.343 48.248 563.22 47.535 562.973 47.0914C562.726 46.6477 562.274 46.4259 561.616 46.4259C560.958 46.4259 560.505 46.6477 560.259 47.0914C560.012 47.535 559.888 48.248 559.888 49.2303C559.888 50.2047 560.008 50.9018 560.246 51.3216ZM564.306 52.3673C563.788 53.0328 562.891 53.3655 561.616 53.3655C560.341 53.3655 559.44 53.0328 558.914 52.3673C558.395 51.694 558.136 50.6443 558.136 49.2184C558.136 47.7925 558.395 46.7349 558.914 46.0457C559.44 45.3486 560.341 45 561.616 45C562.891 45 563.788 45.3486 564.306 46.0457C564.832 46.7349 565.095 47.7925 565.095 49.2184C565.095 50.6443 564.832 51.694 564.306 52.3673Z" fill="#868E96"/>
<path d="M578.379 45.1426H580.168L578.219 53.2229H575.072L573.123 45.1426H574.912L576.368 51.797H576.923L578.379 45.1426Z" fill="#868E96"/>
<path d="M587.636 53.2229L589.524 45.1426H592.757L594.645 53.2229H592.942L592.609 51.7613H589.672L589.339 53.2229H587.636ZM590.844 46.4972L589.993 50.3354H592.288L591.436 46.4972H590.844Z" fill="#868E96"/>
<path d="M607.941 53.2229H603.165V45.1426H604.868V51.7732H607.941V53.2229Z" fill="#868E96"/>
<path d="M616.389 53.2229V45.1426H621.818V46.5685H618.092V48.4579H621.078V49.8601H618.092V51.797H621.818V53.2229H616.389Z" fill="#868E96"/>
<path d="M630.624 53.2229V45.1426H633.499L635.523 51.797H635.646V45.1426H637.349V53.2229H634.548L632.451 46.5685H632.327V53.2229H630.624Z" fill="#868E96"/>
<path d="M645.831 46.5923V45.1426H652V46.5923H649.779V53.2229H648.076V46.5923H645.831Z" fill="#868E96"/>
<path d="M0 1H3833" stroke="#FF4C8B" stroke-width="2"/>
<path d="M1717.83 87.7744C1717.87 88.3075 1717.87 88.8408 1717.87 89.374C1717.87 105.637 1705.5 124.375 1682.88 124.375C1675.92 124.375 1669.44 122.356 1664 118.853C1664.99 118.967 1665.94 119.005 1666.97 119.005C1672.72 119.005 1678.01 117.063 1682.24 113.749C1676.83 113.635 1672.3 110.093 1670.74 105.218C1671.5 105.332 1672.26 105.408 1673.06 105.408C1674.17 105.408 1675.27 105.256 1676.3 104.989C1670.66 103.847 1666.44 98.8955 1666.44 92.916V92.7637C1668.07 93.6778 1669.98 94.2491 1671.99 94.3251C1668.68 92.1161 1666.51 88.3456 1666.51 84.08C1666.51 81.7949 1667.12 79.7002 1668.19 77.872C1674.24 85.3369 1683.34 90.2118 1693.54 90.7451C1693.35 89.831 1693.24 88.8789 1693.24 87.9268C1693.24 81.1474 1698.72 75.625 1705.54 75.625C1709.08 75.625 1712.27 77.1103 1714.52 79.5098C1717.3 78.9766 1719.96 77.9482 1722.32 76.5391C1721.41 79.3956 1719.47 81.795 1716.92 83.3183C1719.39 83.0519 1721.79 82.3662 1724 81.4141C1722.33 83.8515 1720.23 86.0223 1717.83 87.7744V87.7744Z" fill="#FF4C8B"/>
<path d="M1784.64 103.36V104.08C1784.64 111.152 1783.58 115.472 1781.47 117.04C1780.7 117.616 1779.95 117.984 1779.22 118.144C1778.48 118.304 1777.62 118.384 1776.62 118.384C1775.63 118.384 1774.78 118.272 1774.08 118.048C1773.38 117.856 1772.83 117.616 1772.45 117.328C1771.71 116.72 1771.23 116.08 1771.01 115.408C1769.7 116.176 1768.19 116.864 1766.5 117.472C1764.83 118.048 1763.5 118.336 1762.51 118.336C1761.52 118.336 1760.69 118.272 1760.02 118.144C1759.34 118.016 1758.61 117.712 1757.81 117.232C1757.04 116.752 1756.38 116.08 1755.84 115.216C1754.62 113.264 1754.02 110.208 1754.02 106.048C1754.02 101.888 1754.74 98.784 1756.18 96.736C1757.65 94.688 1760.21 93.664 1763.86 93.664C1765.42 93.664 1767.07 93.984 1768.8 94.624L1769.71 94.96V94.144H1772.59V103.504C1772.59 109.232 1772.8 112.72 1773.22 113.968C1773.34 114.416 1773.57 114.832 1773.89 115.216C1774.21 115.568 1774.56 115.776 1774.94 115.84C1775.36 115.904 1775.9 115.936 1776.58 115.936C1777.28 115.936 1777.86 115.888 1778.3 115.792C1778.75 115.664 1779.22 115.392 1779.7 114.976C1780.18 114.528 1780.54 113.888 1780.8 113.056C1781.38 111.008 1781.66 108.016 1781.66 104.08V103.312C1781.66 97.2 1780.32 92.784 1777.63 90.064C1774.94 87.312 1770.43 85.936 1764.1 85.936C1757.76 85.936 1753.09 87.456 1750.08 90.496C1747.07 93.536 1745.57 98.608 1745.57 105.712C1745.57 112.816 1747.01 117.824 1749.89 120.736C1752.8 123.648 1757.57 125.104 1764.19 125.104L1771.06 124.624L1771.2 127.216C1768.13 127.536 1765.79 127.696 1764.19 127.696C1760.48 127.696 1757.34 127.344 1754.78 126.64C1752.22 125.936 1750 124.752 1748.11 123.088C1744.43 119.856 1742.59 114.176 1742.59 106.048C1742.59 97.888 1744.38 92.08 1747.97 88.624C1751.58 85.136 1756.98 83.392 1764.14 83.392C1771.34 83.392 1776.56 85.024 1779.79 88.288C1783.02 91.52 1784.64 96.544 1784.64 103.36ZM1770.19 113.296C1770.06 112.784 1769.95 111.472 1769.86 109.36C1769.76 107.216 1769.71 105.504 1769.71 104.224V97.36C1767.63 96.624 1765.81 96.256 1764.24 96.256C1761.39 96.256 1759.46 97.056 1758.43 98.656C1757.41 100.256 1756.9 102.816 1756.9 106.336C1756.9 110.272 1757.5 112.88 1758.72 114.16C1759.78 115.216 1761.14 115.744 1762.8 115.744C1764.46 115.744 1766.93 114.928 1770.19 113.296ZM1788.08 118L1797.68 84.64H1804.64L1814.19 118H1811.26L1808.57 108.784H1793.69L1791.05 118H1788.08ZM1799.84 87.232L1794.41 106.144H1807.85L1802.43 87.232H1799.84ZM1819.26 118V83.344H1822.1V118H1819.26ZM1829.57 128.8V94H1832.4V95.824C1834.9 94.288 1837.52 93.52 1840.27 93.52C1843.06 93.52 1845.12 94.496 1846.46 96.448C1847.84 98.4 1848.53 101.584 1848.53 106C1848.53 110.384 1847.73 113.568 1846.13 115.552C1844.53 117.504 1841.87 118.48 1838.16 118.48C1836.18 118.48 1834.26 118.272 1832.4 117.856V128.8H1829.57ZM1839.7 96.112C1838.64 96.112 1837.5 96.288 1836.29 96.64C1835.07 96.992 1834.13 97.36 1833.46 97.744L1832.4 98.272V115.36C1834.58 115.744 1836.46 115.936 1838.06 115.936C1840.82 115.936 1842.75 115.168 1843.87 113.632C1844.99 112.064 1845.55 109.504 1845.55 105.952C1845.55 102.368 1845.06 99.84 1844.06 98.368C1843.1 96.864 1841.65 96.112 1839.7 96.112ZM1857.53 118H1854.69V83.344H1857.53V95.392C1860.21 94.144 1862.81 93.52 1865.3 93.52C1868.5 93.52 1870.63 94.368 1871.69 96.064C1872.77 97.76 1873.32 100.864 1873.32 105.376V118H1870.44V105.52C1870.44 101.84 1870.09 99.36 1869.38 98.08C1868.71 96.768 1867.22 96.112 1864.92 96.112C1863.8 96.112 1862.61 96.256 1861.37 96.544C1860.15 96.8 1859.21 97.072 1858.53 97.36L1857.53 97.744V118ZM1896.8 101.152V114.016C1896.93 115.2 1897.97 115.904 1899.92 116.128L1899.78 118.432C1897.31 118.432 1895.5 117.792 1894.35 116.512C1891.34 117.824 1888.34 118.48 1885.33 118.48C1883.18 118.48 1881.55 117.872 1880.43 116.656C1879.31 115.408 1878.75 113.648 1878.75 111.376C1878.75 109.072 1879.31 107.376 1880.43 106.288C1881.58 105.168 1883.38 104.48 1885.81 104.224L1893.97 103.408V101.152C1893.97 99.36 1893.57 98.08 1892.77 97.312C1892 96.512 1890.96 96.112 1889.65 96.112C1887.6 96.112 1884.94 96.304 1881.68 96.688L1880.19 96.832L1880.05 94.528C1883.57 93.856 1886.64 93.52 1889.26 93.52C1891.92 93.52 1893.84 94.144 1895.02 95.392C1896.21 96.64 1896.8 98.56 1896.8 101.152ZM1881.73 111.184C1881.73 114.416 1883.06 116.032 1885.71 116.032C1886.86 116.032 1888.13 115.904 1889.5 115.648C1890.88 115.36 1891.97 115.072 1892.77 114.784L1893.97 114.352V105.664L1886.14 106.48C1884.58 106.608 1883.44 107.056 1882.74 107.824C1882.06 108.592 1881.73 109.712 1881.73 111.184ZM1901.84 118L1911.44 84.64H1918.4L1927.95 118H1925.02L1922.34 108.784H1907.46L1904.82 118H1901.84ZM1913.6 87.232L1908.18 106.144H1921.62L1916.19 87.232H1913.6ZM1933.03 118V83.344H1935.86V118H1933.03ZM1959.85 101.152V114.016C1959.97 115.2 1961.01 115.904 1962.97 116.128L1962.82 118.432C1960.36 118.432 1958.55 117.792 1957.4 116.512C1954.39 117.824 1951.38 118.48 1948.37 118.48C1946.23 118.48 1944.6 117.872 1943.48 116.656C1942.36 115.408 1941.8 113.648 1941.8 111.376C1941.8 109.072 1942.36 107.376 1943.48 106.288C1944.63 105.168 1946.42 104.48 1948.85 104.224L1957.01 103.408V101.152C1957.01 99.36 1956.61 98.08 1955.81 97.312C1955.05 96.512 1954.01 96.112 1952.69 96.112C1950.65 96.112 1947.99 96.304 1944.73 96.688L1943.24 96.832L1943.09 94.528C1946.61 93.856 1949.69 93.52 1952.31 93.52C1954.97 93.52 1956.89 94.144 1958.07 95.392C1959.25 96.64 1959.85 98.56 1959.85 101.152ZM1944.77 111.184C1944.77 114.416 1946.1 116.032 1948.76 116.032C1949.91 116.032 1951.17 115.904 1952.55 115.648C1953.93 115.36 1955.01 115.072 1955.81 114.784L1957.01 114.352V105.664L1949.19 106.48C1947.62 106.608 1946.49 107.056 1945.78 107.824C1945.11 108.592 1944.77 109.712 1944.77 111.184ZM1967.29 118V94H1970.12V97.456C1971.3 96.624 1972.74 95.824 1974.44 95.056C1976.17 94.288 1977.75 93.776 1979.19 93.52V96.4C1977.82 96.688 1976.38 97.136 1974.87 97.744C1973.37 98.32 1972.2 98.832 1971.37 99.28L1970.12 100V118H1967.29ZM1986.39 118H1983.55V94H1986.39V95.776C1988.82 94.272 1991.41 93.52 1994.16 93.52C1996.91 93.52 1998.87 94.368 2000.02 96.064C2001.17 95.36 2002.56 94.768 2004.19 94.288C2005.86 93.776 2007.35 93.52 2008.66 93.52C2011.86 93.52 2013.99 94.368 2015.04 96.064C2016.13 97.728 2016.67 100.832 2016.67 105.376V118H2013.84V105.52C2013.84 101.84 2013.49 99.36 2012.79 98.08C2012.11 96.768 2010.63 96.112 2008.32 96.112C2007.17 96.112 2005.99 96.288 2004.77 96.64C2003.55 96.96 2002.63 97.296 2001.99 97.648L2001.03 98.128C2001.51 99.344 2001.75 101.808 2001.75 105.52V118H1998.87V105.616C1998.87 101.872 1998.51 99.36 1997.81 98.08C1997.14 96.768 1995.67 96.112 1993.39 96.112C1992.27 96.112 1991.12 96.288 1989.94 96.64C1988.79 96.96 1987.91 97.296 1987.3 97.648L1986.39 98.128V118ZM2024.98 122.608H2045.52V125.2H2024.98V122.608ZM2075.75 118V102.592H2057.65V118H2054.68V84.64H2057.65V99.952H2075.75V84.64H2078.68V118H2075.75ZM2098.78 118.48C2093.85 118.48 2090.44 117.12 2088.55 114.4C2086.7 111.68 2085.77 107.392 2085.77 101.536C2085.77 95.648 2086.71 91.28 2088.6 88.432C2090.49 85.584 2093.88 84.16 2098.78 84.16C2103.67 84.16 2107.07 85.584 2108.95 88.432C2110.87 91.248 2111.83 95.6 2111.83 101.488C2111.83 105.68 2111.4 109.008 2110.54 111.472C2109.71 113.936 2108.27 115.744 2106.22 116.896L2110.3 123.52L2107.47 124.864L2103.29 117.952C2102.04 118.304 2100.54 118.48 2098.78 118.48ZM2088.84 101.488C2088.84 106.576 2089.51 110.24 2090.86 112.48C2092.2 114.688 2094.84 115.792 2098.78 115.792C2102.75 115.792 2105.4 114.72 2106.75 112.576C2108.09 110.4 2108.76 106.752 2108.76 101.632C2108.76 96.512 2108.06 92.768 2106.65 90.4C2105.24 88.032 2102.62 86.848 2098.78 86.848C2094.81 86.848 2092.14 88.128 2090.76 90.688C2090.03 92 2089.51 93.504 2089.23 95.2C2088.97 96.896 2088.84 98.992 2088.84 101.488Z" fill="white"/>
<path d="M2307.15 83.4298L2299.23 120.789C2298.63 123.426 2297.08 124.082 2294.86 122.84L2282.79 113.945L2276.97 119.547C2276.32 120.191 2275.78 120.731 2274.54 120.731L2275.41 108.438L2297.78 88.2227C2298.75 87.3555 2297.57 86.8751 2296.27 87.7423L2268.61 105.156L2256.71 101.43C2254.12 100.621 2254.07 98.8399 2257.24 97.5977L2303.81 79.6563C2305.97 78.8477 2307.86 80.1368 2307.15 83.4298V83.4298Z" fill="#FF4C8B"/>
<path d="M2328.2 118L2337.8 84.64H2344.76L2354.31 118H2351.38L2348.7 108.784H2333.82L2331.18 118H2328.2ZM2339.96 87.232L2334.54 106.144H2347.98L2342.55 87.232H2339.96ZM2359.39 118V83.344H2362.22V118H2359.39ZM2369.69 128.8V94H2372.53V95.824C2375.02 94.288 2377.65 93.52 2380.4 93.52C2383.18 93.52 2385.25 94.496 2386.59 96.448C2387.97 98.4 2388.65 101.584 2388.65 106C2388.65 110.384 2387.85 113.568 2386.25 115.552C2384.65 117.504 2382 118.48 2378.29 118.48C2376.3 118.48 2374.38 118.272 2372.53 117.856V128.8H2369.69ZM2379.82 96.112C2378.77 96.112 2377.63 96.288 2376.41 96.64C2375.2 96.992 2374.25 97.36 2373.58 97.744L2372.53 98.272V115.36C2374.7 115.744 2376.59 115.936 2378.19 115.936C2380.94 115.936 2382.88 115.168 2384 113.632C2385.12 112.064 2385.68 109.504 2385.68 105.952C2385.68 102.368 2385.18 99.84 2384.19 98.368C2383.23 96.864 2381.77 96.112 2379.82 96.112ZM2397.65 118H2394.82V83.344H2397.65V95.392C2400.34 94.144 2402.93 93.52 2405.43 93.52C2408.63 93.52 2410.75 94.368 2411.81 96.064C2412.9 97.76 2413.44 100.864 2413.44 105.376V118H2410.56V105.52C2410.56 101.84 2410.21 99.36 2409.51 98.08C2408.83 96.768 2407.35 96.112 2405.04 96.112C2403.92 96.112 2402.74 96.256 2401.49 96.544C2400.27 96.8 2399.33 97.072 2398.66 97.36L2397.65 97.744V118ZM2436.92 101.152V114.016C2437.05 115.2 2438.09 115.904 2440.04 116.128L2439.9 118.432C2437.44 118.432 2435.63 117.792 2434.48 116.512C2431.47 117.824 2428.46 118.48 2425.45 118.48C2423.31 118.48 2421.68 117.872 2420.56 116.656C2419.44 115.408 2418.88 113.648 2418.88 111.376C2418.88 109.072 2419.44 107.376 2420.56 106.288C2421.71 105.168 2423.5 104.48 2425.93 104.224L2434.09 103.408V101.152C2434.09 99.36 2433.69 98.08 2432.89 97.312C2432.12 96.512 2431.08 96.112 2429.77 96.112C2427.72 96.112 2425.07 96.304 2421.8 96.688L2420.32 96.832L2420.17 94.528C2423.69 93.856 2426.76 93.52 2429.39 93.52C2432.04 93.52 2433.96 94.144 2435.15 95.392C2436.33 96.64 2436.92 98.56 2436.92 101.152ZM2421.85 111.184C2421.85 114.416 2423.18 116.032 2425.84 116.032C2426.99 116.032 2428.25 115.904 2429.63 115.648C2431 115.36 2432.09 115.072 2432.89 114.784L2434.09 114.352V105.664L2426.27 106.48C2424.7 106.608 2423.56 107.056 2422.86 107.824C2422.19 108.592 2421.85 109.712 2421.85 111.184ZM2441.97 118L2451.57 84.64H2458.53L2468.08 118H2465.15L2462.46 108.784H2447.58L2444.94 118H2441.97ZM2453.73 87.232L2448.3 106.144H2461.74L2456.32 87.232H2453.73ZM2473.15 118V83.344H2475.99V118H2473.15ZM2499.97 101.152V114.016C2500.1 115.2 2501.14 115.904 2503.09 116.128L2502.95 118.432C2500.48 118.432 2498.68 117.792 2497.52 116.512C2494.52 117.824 2491.51 118.48 2488.5 118.48C2486.36 118.48 2484.72 117.872 2483.6 116.656C2482.48 115.408 2481.92 113.648 2481.92 111.376C2481.92 109.072 2482.48 107.376 2483.6 106.288C2484.76 105.168 2486.55 104.48 2488.98 104.224L2497.14 103.408V101.152C2497.14 99.36 2496.74 98.08 2495.94 97.312C2495.17 96.512 2494.13 96.112 2492.82 96.112C2490.77 96.112 2488.12 96.304 2484.85 96.688L2483.36 96.832L2483.22 94.528C2486.74 93.856 2489.81 93.52 2492.44 93.52C2495.09 93.52 2497.01 94.144 2498.2 95.392C2499.38 96.64 2499.97 98.56 2499.97 101.152ZM2484.9 111.184C2484.9 114.416 2486.23 116.032 2488.88 116.032C2490.04 116.032 2491.3 115.904 2492.68 115.648C2494.05 115.36 2495.14 115.072 2495.94 114.784L2497.14 114.352V105.664L2489.32 106.48C2487.75 106.608 2486.61 107.056 2485.91 107.824C2485.24 108.592 2484.9 109.712 2484.9 111.184ZM2507.41 118V94H2510.24V97.456C2511.43 96.624 2512.87 95.824 2514.56 95.056C2516.29 94.288 2517.88 93.776 2519.32 93.52V96.4C2517.94 96.688 2516.5 97.136 2515 97.744C2513.49 98.32 2512.32 98.832 2511.49 99.28L2510.24 100V118H2507.41ZM2526.51 118H2523.68V94H2526.51V95.776C2528.94 94.272 2531.53 93.52 2534.29 93.52C2537.04 93.52 2538.99 94.368 2540.14 96.064C2541.29 95.36 2542.69 94.768 2544.32 94.288C2545.98 93.776 2547.47 93.52 2548.78 93.52C2551.98 93.52 2554.11 94.368 2555.17 96.064C2556.25 97.728 2556.8 100.832 2556.8 105.376V118H2553.97V105.52C2553.97 101.84 2553.61 99.36 2552.91 98.08C2552.24 96.768 2550.75 96.112 2548.45 96.112C2547.29 96.112 2546.11 96.288 2544.89 96.64C2543.68 96.96 2542.75 97.296 2542.11 97.648L2541.15 98.128C2541.63 99.344 2541.87 101.808 2541.87 105.52V118H2538.99V105.616C2538.99 101.872 2538.64 99.36 2537.93 98.08C2537.26 96.768 2535.79 96.112 2533.52 96.112C2532.4 96.112 2531.25 96.288 2530.06 96.64C2528.91 96.96 2528.03 97.296 2527.42 97.648L2526.51 98.128V118ZM2565.1 122.608H2585.64V125.2H2565.1V122.608ZM2615.87 118V102.592H2597.78V118H2594.8V84.64H2597.78V99.952H2615.87V84.64H2618.8V118H2615.87ZM2638.9 118.48C2633.98 118.48 2630.57 117.12 2628.68 114.4C2626.82 111.68 2625.9 107.392 2625.9 101.536C2625.9 95.648 2626.84 91.28 2628.73 88.432C2630.62 85.584 2634.01 84.16 2638.9 84.16C2643.8 84.16 2647.19 85.584 2649.08 88.432C2651 91.248 2651.96 95.6 2651.96 101.488C2651.96 105.68 2651.53 109.008 2650.66 111.472C2649.83 113.936 2648.39 115.744 2646.34 116.896L2650.42 123.52L2647.59 124.864L2643.42 117.952C2642.17 118.304 2640.66 118.48 2638.9 118.48ZM2628.97 101.488C2628.97 106.576 2629.64 110.24 2630.98 112.48C2632.33 114.688 2634.97 115.792 2638.9 115.792C2642.87 115.792 2645.53 114.72 2646.87 112.576C2648.22 110.4 2648.89 106.752 2648.89 101.632C2648.89 96.512 2648.18 92.768 2646.78 90.4C2645.37 88.032 2642.74 86.848 2638.9 86.848C2634.94 86.848 2632.26 88.128 2630.89 90.688C2630.15 92 2629.64 93.504 2629.35 95.2C2629.1 96.896 2628.97 98.992 2628.97 101.488Z" fill="white"/>
<path fill-rule="evenodd" clip-rule="evenodd" d="M2824.78 85.9378C2824.78 85.9378 2831.25 97.5895 2831.25 111.964C2831.25 111.964 2827.43 118.438 2817.5 118.75C2817.5 118.75 2815.88 116.83 2814.53 115.134C2820.42 113.482 2822.66 109.822 2822.66 109.822C2820.82 111.027 2819.07 111.875 2817.5 112.455C2807.81 116.495 2797.03 115.113 2789.45 110.893C2789.43 110.878 2789.34 110.832 2789.23 110.764C2788.85 110.552 2788.11 110.125 2787.6 109.777C2787.6 109.777 2789.76 113.348 2795.47 115.045C2794.12 116.741 2792.46 118.75 2792.46 118.75C2782.53 118.438 2778.75 111.964 2778.75 111.964C2778.75 97.5895 2785.22 85.9378 2785.22 85.9378C2791.7 81.1164 2797.85 81.2504 2797.85 81.2504L2798.3 81.7861C2790.21 84.1075 2786.48 87.6342 2786.48 87.6342C2786.48 87.6342 2787.47 87.0985 2789.13 86.3396C2799.49 81.8211 2812.03 81.8222 2822.71 87.6342C2822.71 87.6342 2819.16 84.2861 2811.52 81.9646L2812.15 81.2504C2812.15 81.2504 2818.3 81.1164 2824.78 85.9378ZM2796.59 97.902C2794.03 97.902 2792.01 100.134 2792.01 102.857C2792.01 105.58 2794.08 107.813 2796.59 107.813C2799.16 107.813 2801.18 105.58 2801.18 102.857C2801.22 100.134 2799.16 97.902 2796.59 97.902ZM2813 107.813C2815.56 107.813 2817.59 105.58 2817.59 102.857C2817.59 100.134 2815.56 97.902 2813 97.902C2810.44 97.902 2808.42 100.134 2808.42 102.857C2808.42 105.58 2810.48 107.813 2813 107.813Z" fill="#FF4C8B"/>
<path d="M2863.53 93.52C2864.97 93.52 2866.68 93.68 2868.66 94L2869.77 94.144L2869.62 96.592C2867.1 96.272 2865.22 96.112 2864.01 96.112C2861.16 96.112 2859.21 96.816 2858.15 98.224C2857.1 99.6 2856.57 102.16 2856.57 105.904C2856.57 109.616 2857.05 112.208 2858.01 113.68C2858.97 115.152 2860.97 115.888 2864.01 115.888L2869.72 115.456L2869.82 117.904C2866.97 118.288 2864.86 118.48 2863.48 118.48C2859.67 118.48 2857.06 117.536 2855.66 115.648C2854.28 113.76 2853.59 110.512 2853.59 105.904C2853.59 101.296 2854.34 98.08 2855.85 96.256C2857.38 94.432 2859.94 93.52 2863.53 93.52ZM2874.03 105.952C2874.03 101.44 2874.78 98.24 2876.29 96.352C2877.82 94.464 2880.41 93.52 2884.06 93.52C2887.74 93.52 2890.33 94.464 2891.84 96.352C2893.37 98.24 2894.14 101.44 2894.14 105.952C2894.14 110.464 2893.44 113.68 2892.03 115.6C2890.65 117.52 2888.01 118.48 2884.11 118.48C2880.21 118.48 2877.55 117.52 2876.14 115.6C2874.73 113.68 2874.03 110.464 2874.03 105.952ZM2877.01 105.904C2877.01 109.68 2877.44 112.304 2878.3 113.776C2879.2 115.216 2881.12 115.936 2884.06 115.936C2887.04 115.936 2888.97 115.2 2889.87 113.728C2890.77 112.256 2891.21 109.648 2891.21 105.904C2891.21 102.128 2890.7 99.552 2889.68 98.176C2888.69 96.768 2886.83 96.064 2884.11 96.064C2881.39 96.064 2879.52 96.752 2878.49 98.128C2877.5 99.504 2877.01 102.096 2877.01 105.904ZM2897.62 94H2900.79L2906.79 115.504H2908.71L2914.95 94H2917.93L2910.92 118H2904.63L2897.62 94ZM2938.94 101.152V114.016C2939.07 115.2 2940.11 115.904 2942.06 116.128L2941.92 118.432C2939.45 118.432 2937.64 117.792 2936.49 116.512C2933.48 117.824 2930.48 118.48 2927.47 118.48C2925.32 118.48 2923.69 117.872 2922.57 116.656C2921.45 115.408 2920.89 113.648 2920.89 111.376C2920.89 109.072 2921.45 107.376 2922.57 106.288C2923.72 105.168 2925.52 104.48 2927.95 104.224L2936.11 103.408V101.152C2936.11 99.36 2935.71 98.08 2934.91 97.312C2934.14 96.512 2933.1 96.112 2931.79 96.112C2929.74 96.112 2927.08 96.304 2923.82 96.688L2922.33 96.832L2922.19 94.528C2925.71 93.856 2928.78 93.52 2931.4 93.52C2934.06 93.52 2935.98 94.144 2937.16 95.392C2938.35 96.64 2938.94 98.56 2938.94 101.152ZM2923.87 111.184C2923.87 114.416 2925.2 116.032 2927.85 116.032C2929 116.032 2930.27 115.904 2931.64 115.648C2933.02 115.36 2934.11 115.072 2934.91 114.784L2936.11 114.352V105.664L2928.28 106.48C2926.72 106.608 2925.58 107.056 2924.88 107.824C2924.2 108.592 2923.87 109.712 2923.87 111.184ZM2946.67 118V83.344H2949.5V118H2946.67ZM2972.86 115.6L2974.3 115.456L2974.4 117.808C2970.78 118.256 2967.73 118.48 2965.23 118.48C2961.78 118.448 2959.36 117.424 2957.98 115.408C2956.61 113.392 2955.92 110.288 2955.92 106.096C2955.92 97.712 2959.22 93.52 2965.81 93.52C2968.98 93.52 2971.34 94.432 2972.91 96.256C2974.48 98.048 2975.26 100.928 2975.26 104.896L2975.17 107.2H2958.85C2958.85 110.144 2959.34 112.336 2960.34 113.776C2961.36 115.184 2963.09 115.888 2965.52 115.888C2967.98 115.888 2970.43 115.792 2972.86 115.6ZM2958.85 104.8H2972.38C2972.38 101.632 2971.86 99.376 2970.8 98.032C2969.78 96.688 2968.11 96.016 2965.81 96.016C2963.54 96.016 2961.81 96.72 2960.62 98.128C2959.44 99.504 2958.85 101.728 2958.85 104.8ZM2983.99 118H2981.16V94H2983.99V95.776C2986.68 94.272 2989.29 93.52 2991.82 93.52C2995.02 93.52 2997.15 94.368 2998.2 96.064C2999.29 97.76 2999.83 100.864 2999.83 105.376V118H2996.95V105.52C2996.95 101.84 2996.6 99.36 2995.9 98.08C2995.19 96.768 2993.69 96.112 2991.39 96.112C2990.27 96.112 2989.08 96.288 2987.83 96.64C2986.62 96.96 2985.67 97.296 2985 97.648L2983.99 98.128V118ZM3018.71 96.544H3010.7V108.4C3010.7 111.504 3010.92 113.536 3011.37 114.496C3011.82 115.456 3012.87 115.936 3014.54 115.936L3018.95 115.6L3019.14 118.048C3017.03 118.368 3015.42 118.528 3014.3 118.528C3011.86 118.528 3010.17 117.936 3009.21 116.752C3008.28 115.536 3007.82 113.232 3007.82 109.84V96.544H3004.26V94H3007.82V86.464H3010.7V94H3018.71V96.544ZM3026.04 118H3023.21V83.344H3026.04V95.392C3028.73 94.144 3031.32 93.52 3033.82 93.52C3037.02 93.52 3039.15 94.368 3040.2 96.064C3041.29 97.76 3041.83 100.864 3041.83 105.376V118H3038.95V105.52C3038.95 101.84 3038.6 99.36 3037.9 98.08C3037.23 96.768 3035.74 96.112 3033.43 96.112C3032.31 96.112 3031.13 96.256 3029.88 96.544C3028.67 96.8 3027.72 97.072 3027.05 97.36L3026.04 97.744V118ZM3056.63 118.48C3053.43 118.48 3051.14 117.52 3049.76 115.6C3048.42 113.68 3047.75 110.496 3047.75 106.048C3047.75 101.6 3048.56 98.4 3050.2 96.448C3051.86 94.496 3054.77 93.52 3058.93 93.52L3066.61 94V128.8H3063.78V116.8C3061.51 117.92 3059.12 118.48 3056.63 118.48ZM3058.98 96.064C3055.75 96.064 3053.56 96.864 3052.4 98.464C3051.25 100.032 3050.68 102.56 3050.68 106.048C3050.68 109.536 3051.14 112.048 3052.07 113.584C3053 115.12 3054.6 115.888 3056.87 115.888C3057.96 115.888 3059.08 115.76 3060.23 115.504C3061.38 115.248 3062.26 114.992 3062.87 114.736L3063.78 114.304V96.352C3061.6 96.16 3060 96.064 3058.98 96.064ZM3073.59 118V113.152H3076.76V118H3073.59ZM3092.65 93.52C3094.09 93.52 3095.81 93.68 3097.79 94L3098.89 94.144L3098.75 96.592C3096.22 96.272 3094.35 96.112 3093.13 96.112C3090.29 96.112 3088.33 96.816 3087.28 98.224C3086.22 99.6 3085.69 102.16 3085.69 105.904C3085.69 109.616 3086.17 112.208 3087.13 113.68C3088.09 115.152 3090.09 115.888 3093.13 115.888L3098.85 115.456L3098.94 117.904C3096.09 118.288 3093.98 118.48 3092.61 118.48C3088.8 118.48 3086.19 117.536 3084.78 115.648C3083.41 113.76 3082.72 110.512 3082.72 105.904C3082.72 101.296 3083.47 98.08 3084.97 96.256C3086.51 94.432 3089.07 93.52 3092.65 93.52ZM3103.15 105.952C3103.15 101.44 3103.91 98.24 3105.41 96.352C3106.95 94.464 3109.54 93.52 3113.19 93.52C3116.87 93.52 3119.46 94.464 3120.96 96.352C3122.5 98.24 3123.27 101.44 3123.27 105.952C3123.27 110.464 3122.56 113.68 3121.15 115.6C3119.78 117.52 3117.14 118.48 3113.23 118.48C3109.33 118.48 3106.67 117.52 3105.27 115.6C3103.86 113.68 3103.15 110.464 3103.15 105.952ZM3106.13 105.904C3106.13 109.68 3106.56 112.304 3107.43 113.776C3108.32 115.216 3110.24 115.936 3113.19 115.936C3116.16 115.936 3118.1 115.2 3118.99 113.728C3119.89 112.256 3120.34 109.648 3120.34 105.904C3120.34 102.128 3119.83 99.552 3118.8 98.176C3117.81 96.768 3115.95 96.064 3113.23 96.064C3110.51 96.064 3108.64 96.752 3107.62 98.128C3106.63 99.504 3106.13 102.096 3106.13 105.904ZM3132.31 118H3129.48V94H3132.31V95.776C3134.74 94.272 3137.33 93.52 3140.08 93.52C3142.84 93.52 3144.79 94.368 3145.94 96.064C3147.09 95.36 3148.48 94.768 3150.11 94.288C3151.78 93.776 3153.27 93.52 3154.58 93.52C3157.78 93.52 3159.91 94.368 3160.96 96.064C3162.05 97.728 3162.6 100.832 3162.6 105.376V118H3159.76V105.52C3159.76 101.84 3159.41 99.36 3158.71 98.08C3158.04 96.768 3156.55 96.112 3154.24 96.112C3153.09 96.112 3151.91 96.288 3150.69 96.64C3149.48 96.96 3148.55 97.296 3147.91 97.648L3146.95 98.128C3147.43 99.344 3147.67 101.808 3147.67 105.52V118H3144.79V105.616C3144.79 101.872 3144.44 99.36 3143.73 98.08C3143.06 96.768 3141.59 96.112 3139.32 96.112C3138.2 96.112 3137.04 96.288 3135.86 96.64C3134.71 96.96 3133.83 97.296 3133.22 97.648L3132.31 98.128V118ZM3167.49 117.472L3180.93 84.112L3183.52 85.12L3170.13 118.432L3167.49 117.472ZM3204.99 83.344V118H3202.11V116.224C3199.58 117.728 3197.02 118.48 3194.43 118.48C3193.25 118.48 3192.22 118.336 3191.36 118.048C3190.49 117.792 3189.61 117.264 3188.72 116.464C3186.89 114.832 3185.98 111.648 3185.98 106.912C3185.98 102.144 3186.75 98.72 3188.29 96.64C3189.82 94.56 3192.41 93.52 3196.06 93.52C3197.47 93.52 3199.49 93.728 3202.11 94.144V83.344H3204.99ZM3190.83 114.304C3191.44 114.912 3192.03 115.328 3192.61 115.552C3193.21 115.776 3193.98 115.888 3194.91 115.888C3195.87 115.888 3196.96 115.712 3198.17 115.36C3199.42 115.008 3200.4 114.672 3201.1 114.352L3202.11 113.824V96.64C3199.55 96.256 3197.57 96.064 3196.16 96.064C3193.44 96.064 3191.55 96.896 3190.49 98.56C3189.47 100.224 3188.96 102.8 3188.96 106.288C3188.96 110.384 3189.58 113.056 3190.83 114.304ZM3212.16 118V94H3214.99V118H3212.16ZM3212.16 88V84.4H3214.99V88H3212.16ZM3229.44 96.16C3225.67 96.16 3223.78 97.52 3223.78 100.24C3223.78 101.488 3224.19 102.368 3225.03 102.88C3225.86 103.392 3227.73 103.904 3230.64 104.416C3233.59 104.896 3235.65 105.568 3236.83 106.432C3238.05 107.296 3238.66 108.96 3238.66 111.424C3238.66 113.856 3237.87 115.648 3236.31 116.8C3234.74 117.92 3232.43 118.48 3229.39 118.48C3227.63 118.48 3225.36 118.256 3222.58 117.808L3221.19 117.616L3221.38 115.072C3224.96 115.616 3227.71 115.888 3229.63 115.888C3231.55 115.888 3233.04 115.552 3234.1 114.88C3235.19 114.208 3235.73 113.072 3235.73 111.472C3235.73 109.872 3235.28 108.816 3234.39 108.304C3233.52 107.76 3231.63 107.264 3228.72 106.816C3225.84 106.368 3223.81 105.728 3222.63 104.896C3221.44 104.064 3220.85 102.496 3220.85 100.192C3220.85 97.888 3221.67 96.208 3223.3 95.152C3224.93 94.096 3226.95 93.568 3229.35 93.568C3231.27 93.568 3233.67 93.776 3236.55 94.192L3237.84 94.384L3237.75 96.928C3234.32 96.416 3231.55 96.16 3229.44 96.16ZM3253.39 93.52C3254.83 93.52 3256.54 93.68 3258.52 94L3259.63 94.144L3259.48 96.592C3256.96 96.272 3255.08 96.112 3253.87 96.112C3251.02 96.112 3249.07 96.816 3248.01 98.224C3246.96 99.6 3246.43 102.16 3246.43 105.904C3246.43 109.616 3246.91 112.208 3247.87 113.68C3248.83 115.152 3250.83 115.888 3253.87 115.888L3259.58 115.456L3259.68 117.904C3256.83 118.288 3254.72 118.48 3253.34 118.48C3249.53 118.48 3246.92 117.536 3245.52 115.648C3244.14 113.76 3243.45 110.512 3243.45 105.904C3243.45 101.296 3244.2 98.08 3245.71 96.256C3247.24 94.432 3249.8 93.52 3253.39 93.52ZM3263.89 105.952C3263.89 101.44 3264.64 98.24 3266.14 96.352C3267.68 94.464 3270.27 93.52 3273.92 93.52C3277.6 93.52 3280.19 94.464 3281.7 96.352C3283.23 98.24 3284 101.44 3284 105.952C3284 110.464 3283.3 113.68 3281.89 115.6C3280.51 117.52 3277.87 118.48 3273.97 118.48C3270.06 118.48 3267.41 117.52 3266 115.6C3264.59 113.68 3263.89 110.464 3263.89 105.952ZM3266.86 105.904C3266.86 109.68 3267.3 112.304 3268.16 113.776C3269.06 115.216 3270.98 115.936 3273.92 115.936C3276.9 115.936 3278.83 115.2 3279.73 113.728C3280.62 112.256 3281.07 109.648 3281.07 105.904C3281.07 102.128 3280.56 99.552 3279.54 98.176C3278.54 96.768 3276.69 96.064 3273.97 96.064C3271.25 96.064 3269.38 96.752 3268.35 98.128C3267.36 99.504 3266.86 102.096 3266.86 105.904ZM3290.21 118V94H3293.04V97.456C3294.23 96.624 3295.67 95.824 3297.36 95.056C3299.09 94.288 3300.67 93.776 3302.11 93.52V96.4C3300.74 96.688 3299.3 97.136 3297.79 97.744C3296.29 98.32 3295.12 98.832 3294.29 99.28L3293.04 100V118H3290.21ZM3323.68 83.344V118H3320.8V116.224C3318.27 117.728 3315.71 118.48 3313.12 118.48C3311.93 118.48 3310.91 118.336 3310.05 118.048C3309.18 117.792 3308.3 117.264 3307.41 116.464C3305.58 114.832 3304.67 111.648 3304.67 106.912C3304.67 102.144 3305.44 98.72 3306.97 96.64C3308.51 94.56 3311.1 93.52 3314.75 93.52C3316.16 93.52 3318.17 93.728 3320.8 94.144V83.344H3323.68ZM3309.52 114.304C3310.13 114.912 3310.72 115.328 3311.29 115.552C3311.9 115.776 3312.67 115.888 3313.6 115.888C3314.56 115.888 3315.65 115.712 3316.86 115.36C3318.11 115.008 3319.09 114.672 3319.79 114.352L3320.8 113.824V96.64C3318.24 96.256 3316.25 96.064 3314.85 96.064C3312.13 96.064 3310.24 96.896 3309.18 98.56C3308.16 100.224 3307.65 102.8 3307.65 106.288C3307.65 110.384 3308.27 113.056 3309.52 114.304Z" fill="white"/>
<path fill-rule="evenodd" clip-rule="evenodd" d="M3458 77.5C3445.57 77.5 3435.5 87.5736 3435.5 100C3435.5 112.426 3445.57 122.5 3458 122.5C3470.43 122.5 3480.5 112.426 3480.5 100C3480.5 87.5736 3470.43 77.5 3458 77.5ZM3431.75 100C3431.75 85.5025 3443.5 73.75 3458 73.75C3472.5 73.75 3484.25 85.5025 3484.25 100C3484.25 114.497 3472.5 126.25 3458 126.25C3443.5 126.25 3431.75 114.497 3431.75 100Z" fill="#FF4C8B"/>
<path fill-rule="evenodd" clip-rule="evenodd" d="M3431.75 100C3431.75 98.9645 3432.59 98.125 3433.62 98.125H3482.38C3483.41 98.125 3484.25 98.9645 3484.25 100C3484.25 101.036 3483.41 101.875 3482.38 101.875H3433.62C3432.59 101.875 3431.75 101.036 3431.75 100Z" fill="#FF4C8B"/>
<path fill-rule="evenodd" clip-rule="evenodd" d="M3450.5 100C3450.67 107.836 3453.32 115.364 3458 121.428C3462.68 115.364 3465.33 107.836 3465.5 100C3465.33 92.1639 3462.68 84.6362 3458 78.5725C3453.32 84.6362 3450.67 92.1639 3450.5 100ZM3458 75.625L3456.59 74.3877C3450.43 81.4012 3446.94 90.4904 3446.75 99.9624C3446.75 99.9875 3446.75 100.013 3446.75 100.038C3446.94 109.51 3450.43 118.599 3456.59 125.612C3456.95 126.018 3457.46 126.25 3458 126.25C3458.54 126.25 3459.05 126.018 3459.41 125.612C3465.57 118.599 3469.06 109.51 3469.25 100.038C3469.25 100.013 3469.25 99.9875 3469.25 99.9624C3469.06 90.4904 3465.57 81.4012 3459.41 74.3877L3458 75.625Z" fill="#FF4C8B"/>
<path d="M3516.53 93.52C3517.97 93.52 3519.68 93.68 3521.66 94L3522.77 94.144L3522.62 96.592C3520.1 96.272 3518.22 96.112 3517.01 96.112C3514.16 96.112 3512.21 96.816 3511.15 98.224C3510.1 99.6 3509.57 102.16 3509.57 105.904C3509.57 109.616 3510.05 112.208 3511.01 113.68C3511.97 115.152 3513.97 115.888 3517.01 115.888L3522.72 115.456L3522.82 117.904C3519.97 118.288 3517.86 118.48 3516.48 118.48C3512.67 118.48 3510.06 117.536 3508.66 115.648C3507.28 113.76 3506.59 110.512 3506.59 105.904C3506.59 101.296 3507.34 98.08 3508.85 96.256C3510.38 94.432 3512.94 93.52 3516.53 93.52ZM3527.03 105.952C3527.03 101.44 3527.78 98.24 3529.29 96.352C3530.82 94.464 3533.41 93.52 3537.06 93.52C3540.74 93.52 3543.33 94.464 3544.84 96.352C3546.37 98.24 3547.14 101.44 3547.14 105.952C3547.14 110.464 3546.44 113.68 3545.03 115.6C3543.65 117.52 3541.01 118.48 3537.11 118.48C3533.21 118.48 3530.55 117.52 3529.14 115.6C3527.73 113.68 3527.03 110.464 3527.03 105.952ZM3530.01 105.904C3530.01 109.68 3530.44 112.304 3531.3 113.776C3532.2 115.216 3534.12 115.936 3537.06 115.936C3540.04 115.936 3541.97 115.2 3542.87 113.728C3543.77 112.256 3544.21 109.648 3544.21 105.904C3544.21 102.128 3543.7 99.552 3542.68 98.176C3541.69 96.768 3539.83 96.064 3537.11 96.064C3534.39 96.064 3532.52 96.752 3531.49 98.128C3530.5 99.504 3530.01 102.096 3530.01 105.904ZM3550.62 94H3553.79L3559.79 115.504H3561.71L3567.95 94H3570.93L3563.92 118H3557.63L3550.62 94ZM3591.94 101.152V114.016C3592.07 115.2 3593.11 115.904 3595.06 116.128L3594.92 118.432C3592.45 118.432 3590.64 117.792 3589.49 116.512C3586.48 117.824 3583.48 118.48 3580.47 118.48C3578.32 118.48 3576.69 117.872 3575.57 116.656C3574.45 115.408 3573.89 113.648 3573.89 111.376C3573.89 109.072 3574.45 107.376 3575.57 106.288C3576.72 105.168 3578.52 104.48 3580.95 104.224L3589.11 103.408V101.152C3589.11 99.36 3588.71 98.08 3587.91 97.312C3587.14 96.512 3586.1 96.112 3584.79 96.112C3582.74 96.112 3580.08 96.304 3576.82 96.688L3575.33 96.832L3575.19 94.528C3578.71 93.856 3581.78 93.52 3584.4 93.52C3587.06 93.52 3588.98 94.144 3590.16 95.392C3591.35 96.64 3591.94 98.56 3591.94 101.152ZM3576.87 111.184C3576.87 114.416 3578.2 116.032 3580.85 116.032C3582 116.032 3583.27 115.904 3584.64 115.648C3586.02 115.36 3587.11 115.072 3587.91 114.784L3589.11 114.352V105.664L3581.28 106.48C3579.72 106.608 3578.58 107.056 3577.88 107.824C3577.2 108.592 3576.87 109.712 3576.87 111.184ZM3599.67 118V83.344H3602.5V118H3599.67ZM3625.86 115.6L3627.3 115.456L3627.4 117.808C3623.78 118.256 3620.73 118.48 3618.23 118.48C3614.78 118.448 3612.36 117.424 3610.98 115.408C3609.61 113.392 3608.92 110.288 3608.92 106.096C3608.92 97.712 3612.22 93.52 3618.81 93.52C3621.98 93.52 3624.34 94.432 3625.91 96.256C3627.48 98.048 3628.26 100.928 3628.26 104.896L3628.17 107.2H3611.85C3611.85 110.144 3612.34 112.336 3613.34 113.776C3614.36 115.184 3616.09 115.888 3618.52 115.888C3620.98 115.888 3623.43 115.792 3625.86 115.6ZM3611.85 104.8H3625.38C3625.38 101.632 3624.86 99.376 3623.8 98.032C3622.78 96.688 3621.11 96.016 3618.81 96.016C3616.54 96.016 3614.81 96.72 3613.62 98.128C3612.44 99.504 3611.85 101.728 3611.85 104.8ZM3636.99 118H3634.16V94H3636.99V95.776C3639.68 94.272 3642.29 93.52 3644.82 93.52C3648.02 93.52 3650.15 94.368 3651.2 96.064C3652.29 97.76 3652.83 100.864 3652.83 105.376V118H3649.95V105.52C3649.95 101.84 3649.6 99.36 3648.9 98.08C3648.19 96.768 3646.69 96.112 3644.39 96.112C3643.27 96.112 3642.08 96.288 3640.83 96.64C3639.62 96.96 3638.67 97.296 3638 97.648L3636.99 98.128V118ZM3671.71 96.544H3663.7V108.4C3663.7 111.504 3663.92 113.536 3664.37 114.496C3664.82 115.456 3665.87 115.936 3667.54 115.936L3671.95 115.6L3672.14 118.048C3670.03 118.368 3668.42 118.528 3667.3 118.528C3664.86 118.528 3663.17 117.936 3662.21 116.752C3661.28 115.536 3660.82 113.232 3660.82 109.84V96.544H3657.26V94H3660.82V86.464H3663.7V94H3671.71V96.544ZM3679.04 118H3676.21V83.344H3679.04V95.392C3681.73 94.144 3684.32 93.52 3686.82 93.52C3690.02 93.52 3692.15 94.368 3693.2 96.064C3694.29 97.76 3694.83 100.864 3694.83 105.376V118H3691.95V105.52C3691.95 101.84 3691.6 99.36 3690.9 98.08C3690.23 96.768 3688.74 96.112 3686.43 96.112C3685.31 96.112 3684.13 96.256 3682.88 96.544C3681.67 96.8 3680.72 97.072 3680.05 97.36L3679.04 97.744V118ZM3709.63 118.48C3706.43 118.48 3704.14 117.52 3702.76 115.6C3701.42 113.68 3700.75 110.496 3700.75 106.048C3700.75 101.6 3701.56 98.4 3703.2 96.448C3704.86 94.496 3707.77 93.52 3711.93 93.52L3719.61 94V128.8H3716.78V116.8C3714.51 117.92 3712.12 118.48 3709.63 118.48ZM3711.98 96.064C3708.75 96.064 3706.56 96.864 3705.4 98.464C3704.25 100.032 3703.68 102.56 3703.68 106.048C3703.68 109.536 3704.14 112.048 3705.07 113.584C3706 115.12 3707.6 115.888 3709.87 115.888C3710.96 115.888 3712.08 115.76 3713.23 115.504C3714.38 115.248 3715.26 114.992 3715.87 114.736L3716.78 114.304V96.352C3714.6 96.16 3713 96.064 3711.98 96.064ZM3726.59 118V113.152H3729.76V118H3726.59ZM3745.65 93.52C3747.09 93.52 3748.81 93.68 3750.79 94L3751.89 94.144L3751.75 96.592C3749.22 96.272 3747.35 96.112 3746.13 96.112C3743.29 96.112 3741.33 96.816 3740.28 98.224C3739.22 99.6 3738.69 102.16 3738.69 105.904C3738.69 109.616 3739.17 112.208 3740.13 113.68C3741.09 115.152 3743.09 115.888 3746.13 115.888L3751.85 115.456L3751.94 117.904C3749.09 118.288 3746.98 118.48 3745.61 118.48C3741.8 118.48 3739.19 117.536 3737.78 115.648C3736.41 113.76 3735.72 110.512 3735.72 105.904C3735.72 101.296 3736.47 98.08 3737.97 96.256C3739.51 94.432 3742.07 93.52 3745.65 93.52ZM3756.15 105.952C3756.15 101.44 3756.91 98.24 3758.41 96.352C3759.95 94.464 3762.54 93.52 3766.19 93.52C3769.87 93.52 3772.46 94.464 3773.96 96.352C3775.5 98.24 3776.27 101.44 3776.27 105.952C3776.27 110.464 3775.56 113.68 3774.15 115.6C3772.78 117.52 3770.14 118.48 3766.23 118.48C3762.33 118.48 3759.67 117.52 3758.27 115.6C3756.86 113.68 3756.15 110.464 3756.15 105.952ZM3759.13 105.904C3759.13 109.68 3759.56 112.304 3760.43 113.776C3761.32 115.216 3763.24 115.936 3766.19 115.936C3769.16 115.936 3771.1 115.2 3771.99 113.728C3772.89 112.256 3773.34 109.648 3773.34 105.904C3773.34 102.128 3772.83 99.552 3771.8 98.176C3770.81 96.768 3768.95 96.064 3766.23 96.064C3763.51 96.064 3761.64 96.752 3760.62 98.128C3759.63 99.504 3759.13 102.096 3759.13 105.904ZM3785.31 118H3782.48V94H3785.31V95.776C3787.74 94.272 3790.33 93.52 3793.08 93.52C3795.84 93.52 3797.79 94.368 3798.94 96.064C3800.09 95.36 3801.48 94.768 3803.11 94.288C3804.78 93.776 3806.27 93.52 3807.58 93.52C3810.78 93.52 3812.91 94.368 3813.96 96.064C3815.05 97.728 3815.6 100.832 3815.6 105.376V118H3812.76V105.52C3812.76 101.84 3812.41 99.36 3811.71 98.08C3811.04 96.768 3809.55 96.112 3807.24 96.112C3806.09 96.112 3804.91 96.288 3803.69 96.64C3802.48 96.96 3801.55 97.296 3800.91 97.648L3799.95 98.128C3800.43 99.344 3800.67 101.808 3800.67 105.52V118H3797.79V105.616C3797.79 101.872 3797.44 99.36 3796.73 98.08C3796.06 96.768 3794.59 96.112 3792.32 96.112C3791.2 96.112 3790.04 96.288 3788.86 96.64C3787.71 96.96 3786.83 97.296 3786.22 97.648L3785.31 98.128V118Z" fill="white"/>
</svg>
