<svg width="940" height="940" viewBox="0 0 940 940" xmlns="http://www.w3.org/2000/svg" xmlns:xlink="http://www.w3.org/1999/xlink" fill="none" overflow="hidden"><path d="M476.345 257.021 476.345 71.3715C256.424 71.3715 78.3334 249.472 78.3334 469.383 78.3334 689.304 256.434 867.414 476.345 867.414L476.345 681.764C358.963 681.764 263.983 586.775 263.983 469.383 263.983 352.01 358.963 257.021 476.345 257.021Z" fill="#FFFFFF" fill-opacity="0.25"/><path d="M689.49 257.021C677.3 257.021 665.23 254.62 653.967 249.956 642.705 245.291 632.472 238.453 623.853 229.834 615.233 221.214 608.396 210.981 603.731 199.719 599.066 188.457 596.665 176.386 596.665 164.196 596.665 152.007 599.066 139.936 603.731 128.674 608.396 117.412 615.233 107.179 623.853 98.5593 632.472 89.9397 642.705 83.1022 653.967 78.4373 665.23 73.7724 677.3 71.3715 689.49 71.3715 714.109 71.3715 737.719 81.1512 755.127 98.5593 772.535 115.967 782.315 139.578 782.315 164.196 782.315 188.815 772.535 212.426 755.127 229.834 737.719 247.242 714.109 257.021 689.49 257.021" fill="#FFFFFF" fill-opacity="0.25"/><path d="M687.933 867.404C663.314 867.404 639.704 857.625 622.296 840.217 604.888 822.808 595.108 799.198 595.108 774.579 595.108 749.961 604.888 726.35 622.296 708.942 639.704 691.534 663.314 681.754 687.933 681.754 712.552 681.754 736.162 691.534 753.57 708.942 770.978 726.35 780.758 749.961 780.758 774.579 780.758 799.198 770.978 822.808 753.57 840.217 736.162 857.625 712.552 867.404 687.933 867.404" fill="#FFFFFF" fill-opacity="0.25"/><path d="M688.717 469.383C688.717 586.775 593.737 681.764 476.345 681.764L476.345 257.011C593.728 257.011 688.717 351.991 688.717 469.373" fill="#FFFFFF" fill-opacity="0.25"/></svg>